ffmpeg started on 2025-07-16 at 15:40:17
Report written to "D:\Convert\FFMetrics\reports\ssim_report-6.txt"
Log level: 32
Command line:
ffmpeg -hide_banner -nostdin -i "G:\\\xc0\xed\xe8\xec\xe5\\Shiza\\\xcb\xe5\xe3\xe5\xed\xe4\xe0 \xee \xc3\xf0\xe0\xed\xea\xf0\xe5\xf1\xf2\xe5\\[SHIZA Project] Grancrest Senki TV [02] [nDrOiDze & Lianna]_HEVC.mkv" -i "G:\\\xc0\xed\xe8\xec\xe5\\Shiza\\\xcb\xe5\xe3\xe5\xed\xe4\xe0 \xee \xc3\xf0\xe0\xed\xea\xf0\xe5\xf1\xf2\xe5\\[SHIZA Project] Grancrest Senki TV [02] [nDrOiDze & Lianna].mkv" -lavfi "[0:v]settb=AVTB,setpts=PTS-STARTPTS,format=pix_fmts=yuv420p10,fps=24000/1001,scale=1280:720:flags=bicubic[main];[1:v]settb=AVTB,setpts=PTS-STARTPTS,format=pix_fmts=yuv420p,fps=24000/1001,scale=1280:720:flags=bicubic[ref];[main][ref]ssim=eof_action=endall:stats_file='D\\:/Convert/FFMetrics/logs/ssim_logfile-6.txt'" -f null -
Input #0, matroska,webm, from 'G:\Аниме\Shiza\Легенда о Гранкресте\[SHIZA Project] Grancrest Senki TV [02] [nDrOiDze & Lianna]_HEVC.mkv':
  Metadata:
    ENCODER         : Lavf61.7.100
  Duration: 00:23:42.04, start: -0.021000, bitrate: 767 kb/s
  Stream #0:0(jpn): Video: hevc (Main 10), yuv420p10le(tv, bt709, progressive), 1280x720 [SAR 1:1 DAR 16:9], 23.81 fps, 23.81 tbr, 1k tbn (default)
      Metadata:
        title           : [SHIZA Project] Grancrest Senki TV [WEBRip]
        ENCODER         : Lavc61.19.100 libx265
        BPS             : 569252
        DURATION        : 00:23:40.062000000
        NUMBER_OF_FRAMES: 34048
        NUMBER_OF_BYTES : 101046784
        _STATISTICS_WRITING_APP: mkvpropedit v66.0.0 ('Josie') 64-bit
        _STATISTICS_WRITING_DATE_UTC: 2025-07-14 07:54:51
        _STATISTICS_TAGS: BPS DURATION NUMBER_OF_FRAMES NUMBER_OF_BYTES
  Stream #0:1(rus): Audio: aac (LC), 48000 Hz, stereo, fltp (default)
      Metadata:
        title           : nDrOiDze & Lianna
        ENCODER         : Lavc61.19.100 aac
        BPS             : 194757
        DURATION        : 00:23:42.016000000
        NUMBER_OF_FRAMES: 66658
        NUMBER_OF_BYTES : 34618522
        _STATISTICS_WRITING_APP: mkvpropedit v66.0.0 ('Josie') 64-bit
        _STATISTICS_WRITING_DATE_UTC: 2025-07-14 07:54:51
        _STATISTICS_TAGS: BPS DURATION NUMBER_OF_FRAMES NUMBER_OF_BYTES
Input #1, matroska,webm, from 'G:\Аниме\Shiza\Легенда о Гранкресте\[SHIZA Project] Grancrest Senki TV [02] [nDrOiDze & Lianna].mkv':
  Metadata:
    encoder         : libebml v1.3.4 + libmatroska v1.4.5
    creation_time   : 2018-01-15T20:39:00.000000Z
  Duration: 00:23:42.02, start: 0.000000, bitrate: 2062 kb/s
  Stream #1:0(jpn): Video: h264 (High), yuv420p(progressive), 1280x720 [SAR 1:1 DAR 16:9], 23.81 fps, 23.81 tbr, 1k tbn (default)
      Metadata:
        title           : [SHIZA Project] Grancrest Senki TV [WEBRip]
        BPS             : 1771645
        BPS-eng         : 1771645
        DURATION        : 00:23:40.045000000
        DURATION-eng    : 00:23:40.045000000
        NUMBER_OF_FRAMES: 34048
        NUMBER_OF_FRAMES-eng: 34048
        NUMBER_OF_BYTES : 314476998
        NUMBER_OF_BYTES-eng: 314476998
        _STATISTICS_WRITING_APP: mkvmerge v10.0.0 ('To Drown In You') 64bit
        _STATISTICS_WRITING_APP-eng: mkvmerge v10.0.0 ('To Drown In You') 64bit
        _STATISTICS_WRITING_DATE_UTC: 2018-01-15 20:39:00
        _STATISTICS_WRITING_DATE_UTC-eng: 2018-01-15 20:39:00
        _STATISTICS_TAGS: BPS DURATION NUMBER_OF_FRAMES NUMBER_OF_BYTES
        _STATISTICS_TAGS-eng: BPS DURATION NUMBER_OF_FRAMES NUMBER_OF_BYTES
  Stream #1:1(rus): Audio: aac (LC), 48000 Hz, stereo, fltp (default)
      Metadata:
        title           : nDrOiDze & Lianna
        BPS             : 288947
        BPS-eng         : 288947
        DURATION        : 00:23:42.016000000
        DURATION-eng    : 00:23:42.016000000
        NUMBER_OF_FRAMES: 66657
        NUMBER_OF_FRAMES-eng: 66657
        NUMBER_OF_BYTES : 51361046
        NUMBER_OF_BYTES-eng: 51361046
        _STATISTICS_WRITING_APP: mkvmerge v10.0.0 ('To Drown In You') 64bit
        _STATISTICS_WRITING_APP-eng: mkvmerge v10.0.0 ('To Drown In You') 64bit
        _STATISTICS_WRITING_DATE_UTC: 2018-01-15 20:39:00
        _STATISTICS_WRITING_DATE_UTC-eng: 2018-01-15 20:39:00
        _STATISTICS_TAGS: BPS DURATION NUMBER_OF_FRAMES NUMBER_OF_BYTES
        _STATISTICS_TAGS-eng: BPS DURATION NUMBER_OF_FRAMES NUMBER_OF_BYTES
  Stream #1:2: Attachment: ttf
      Metadata:
        filename        : OpenSans-Semibold.ttf
        mimetype        : application/x-truetype-font
Stream mapping:
  Stream #0:0 (hevc) -> settb:default
  Stream #1:0 (h264) -> settb:default
  ssim:default -> Stream #0:0 (wrapped_avframe)
  Stream #0:1 -> #0:1 (aac (native) -> pcm_s16le (native))
[swscaler @ 00000283b8255240] No accelerated colorspace conversion found from yuv420p to bgr48le.
[swscaler @ 00000283b83f5200] No accelerated colorspace conversion found from yuv420p to bgr48le.
[swscaler @ 00000283b85519c0] No accelerated colorspace conversion found from yuv420p to bgr48le.
[swscaler @ 00000283b622fd00] No accelerated colorspace conversion found from yuv420p to bgr48le.
[swscaler @ 00000283b874a100] No accelerated colorspace conversion found from yuv420p to bgr48le.
[swscaler @ 00000283b88bab80] No accelerated colorspace conversion found from yuv420p to bgr48le.
[swscaler @ 00000283b8916040] No accelerated colorspace conversion found from yuv420p to bgr48le.
[swscaler @ 00000283b8971040] No accelerated colorspace conversion found from yuv420p to bgr48le.
[swscaler @ 00000283b89de040] No accelerated colorspace conversion found from yuv420p to bgr48le.
[swscaler @ 00000283b8a6b040] No accelerated colorspace conversion found from yuv420p to bgr48le.
[swscaler @ 00000283b8ad9040] No accelerated colorspace conversion found from yuv420p to bgr48le.
[swscaler @ 00000283b8b47040] No accelerated colorspace conversion found from yuv420p to bgr48le.
[swscaler @ 00000283b8bab040] No accelerated colorspace conversion found from yuv420p to bgr48le.
[swscaler @ 00000283b8c35040] No accelerated colorspace conversion found from yuv420p to bgr48le.
[swscaler @ 00000283b8c90040] No accelerated colorspace conversion found from yuv420p to bgr48le.
[swscaler @ 00000283b8ced040] No accelerated colorspace conversion found from yuv420p to bgr48le.
Output #0, null, to 'pipe:':
  Metadata:
    encoder         : Lavf61.7.100
  Stream #0:0: Video: wrapped_avframe, yuv420p10le(tv, bt709, progressive), 1280x720 [SAR 1:1 DAR 16:9], q=2-31, 200 kb/s, 23.98 fps, 23.98 tbn
      Metadata:
        encoder         : Lavc61.19.100 wrapped_avframe
  Stream #0:1(rus): Audio: pcm_s16le, 48000 Hz, stereo, s16, 1536 kb/s (default)
      Metadata:
        title           : nDrOiDze & Lianna
        _STATISTICS_TAGS: BPS DURATION NUMBER_OF_FRAMES NUMBER_OF_BYTES
        BPS             : 194757
        DURATION        : 00:23:42.016000000
        NUMBER_OF_FRAMES: 66658
        NUMBER_OF_BYTES : 34618522
        _STATISTICS_WRITING_APP: mkvpropedit v66.0.0 ('Josie') 64-bit
        _STATISTICS_WRITING_DATE_UTC: 2025-07-14 07:54:51
        encoder         : Lavc61.19.100 pcm_s16le
frame=   75 fps=0.0 q=-0.0 size=N/A time=00:00:03.12 bitrate=N/A speed=6.12x    frame=  165 fps=162 q=-0.0 size=N/A time=00:00:06.88 bitrate=N/A speed=6.75x    frame=  257 fps=166 q=-0.0 size=N/A time=00:00:10.71 bitrate=N/A speed=6.94x    frame=  349 fps=170 q=-0.0 size=N/A time=00:00:14.55 bitrate=N/A speed=7.09x    frame=  431 fps=167 q=-0.0 size=N/A time=00:00:17.97 bitrate=N/A speed=6.98x    frame=  519 fps=168 q=-0.0 size=N/A time=00:00:21.64 bitrate=N/A speed=7.02x    frame=  604 fps=168 q=-0.0 size=N/A time=00:00:25.19 bitrate=N/A speed=   7x    frame=  697 fps=169 q=-0.0 size=N/A time=00:00:29.07 bitrate=N/A speed=7.06x    frame=  786 fps=170 q=-0.0 size=N/A time=00:00:32.78 bitrate=N/A speed=7.07x    frame=  874 fps=170 q=-0.0 size=N/A time=00:00:36.45 bitrate=N/A speed=7.09x    frame=  962 fps=170 q=-0.0 size=N/A time=00:00:40.12 bitrate=N/A speed=7.09x    frame= 1047 fps=169 q=-0.0 size=N/A time=00:00:43.66 bitrate=N/A speed=7.07x    frame= 1144 fps=171 q=-0.0 size=N/A time=00:00:47.71 bitrate=N/A speed=7.13x    frame= 1237 fps=172 q=-0.0 size=N/A time=00:00:51.59 bitrate=N/A speed=7.16x    frame= 1323 fps=171 q=-0.0 size=N/A time=00:00:55.18 bitrate=N/A speed=7.14x    frame= 1418 fps=172 q=-0.0 size=N/A time=00:00:59.14 bitrate=N/A speed=7.18x    frame= 1504 fps=172 q=-0.0 size=N/A time=00:01:02.72 bitrate=N/A speed=7.16x    frame= 1598 fps=172 q=-0.0 size=N/A time=00:01:06.64 bitrate=N/A speed=7.19x    frame= 1692 fps=173 q=-0.0 size=N/A time=00:01:10.57 bitrate=N/A speed= 7.2x    frame= 1781 fps=173 q=-0.0 size=N/A time=00:01:14.28 bitrate=N/A speed=7.21x    frame= 1875 fps=173 q=-0.0 size=N/A time=00:01:18.20 bitrate=N/A speed=7.22x    frame= 1955 fps=172 q=-0.0 size=N/A time=00:01:21.53 bitrate=N/A speed=7.19x    frame= 2054 fps=173 q=-0.0 size=N/A time=00:01:25.66 bitrate=N/A speed=7.22x    frame= 2143 fps=173 q=-0.0 size=N/A time=00:01:29.38 bitrate=N/A speed=7.23x    frame= 2230 fps=173 q=-0.0 size=N/A time=00:01:33.00 bitrate=N/A speed=7.22x    frame= 2323 fps=173 q=-0.0 size=N/A time=00:01:36.88 bitrate=N/A speed=7.23x    frame= 2414 fps=173 q=-0.0 size=N/A time=00:01:40.68 bitrate=N/A speed=7.24x    frame= 2504 fps=174 q=-0.0 size=N/A time=00:01:44.43 bitrate=N/A speed=7.24x    frame= 2594 fps=174 q=-0.0 size=N/A time=00:01:48.19 bitrate=N/A speed=7.24x    frame= 2684 fps=174 q=-0.0 size=N/A time=00:01:51.94 bitrate=N/A speed=7.24x    frame= 2775 fps=174 q=-0.0 size=N/A time=00:01:55.74 bitrate=N/A speed=7.24x    frame= 2854 fps=173 q=-0.0 size=N/A time=00:01:59.03 bitrate=N/A speed=7.22x    frame= 2954 fps=174 q=-0.0 size=N/A time=00:02:03.20 bitrate=N/A speed=7.24x    frame= 3042 fps=174 q=-0.0 size=N/A time=00:02:06.87 bitrate=N/A speed=7.24x    frame= 3129 fps=173 q=-0.0 size=N/A time=00:02:10.50 bitrate=N/A speed=7.24x    frame= 3223 fps=174 q=-0.0 size=N/A time=00:02:14.42 bitrate=N/A speed=7.24x    frame= 3311 fps=174 q=-0.0 size=N/A time=00:02:18.09 bitrate=N/A speed=7.24x    frame= 3395 fps=173 q=-0.0 size=N/A time=00:02:21.59 bitrate=N/A speed=7.23x    frame= 3491 fps=174 q=-0.0 size=N/A time=00:02:25.60 bitrate=N/A speed=7.24x    frame= 3583 fps=174 q=-0.0 size=N/A time=00:02:29.44 bitrate=N/A speed=7.25x    frame= 3676 fps=174 q=-0.0 size=N/A time=00:02:33.31 bitrate=N/A speed=7.25x    frame= 3765 fps=174 q=-0.0 size=N/A time=00:02:37.03 bitrate=N/A speed=7.26x    frame= 3851 fps=174 q=-0.0 size=N/A time=00:02:40.61 bitrate=N/A speed=7.25x    frame= 3946 fps=174 q=-0.0 size=N/A time=00:02:44.58 bitrate=N/A speed=7.25x    frame= 4032 fps=174 q=-0.0 size=N/A time=00:02:48.16 bitrate=N/A speed=7.25x    frame= 4119 fps=174 q=-0.0 size=N/A time=00:02:51.79 bitrate=N/A speed=7.24x    frame= 4205 fps=174 q=-0.0 size=N/A time=00:02:55.38 bitrate=N/A speed=7.24x    frame= 4287 fps=173 q=-0.0 size=N/A time=00:02:58.80 bitrate=N/A speed=7.23x    frame= 4377 fps=173 q=-0.0 size=N/A time=00:03:02.55 bitrate=N/A speed=7.23x    frame= 4463 fps=173 q=-0.0 size=N/A time=00:03:06.14 bitrate=N/A speed=7.22x    frame= 4547 fps=173 q=-0.0 size=N/A time=00:03:09.64 bitrate=N/A speed=7.21x    frame= 4632 fps=173 q=-0.0 size=N/A time=00:03:13.19 bitrate=N/A speed=7.21x    frame= 4716 fps=173 q=-0.0 size=N/A time=00:03:16.69 bitrate=N/A speed= 7.2x    frame= 4802 fps=172 q=-0.0 size=N/A time=00:03:20.28 bitrate=N/A speed=7.19x    frame= 4874 fps=172 q=-0.0 size=N/A time=00:03:23.28 bitrate=N/A speed=7.17x    frame= 4971 fps=172 q=-0.0 size=N/A time=00:03:27.33 bitrate=N/A speed=7.18x    frame= 5057 fps=172 q=-0.0 size=N/A time=00:03:30.91 bitrate=N/A speed=7.18x    frame= 5145 fps=172 q=-0.0 size=N/A time=00:03:34.58 bitrate=N/A speed=7.18x    frame= 5227 fps=172 q=-0.0 size=N/A time=00:03:38.00 bitrate=N/A speed=7.17x    frame= 5313 fps=172 q=-0.0 size=N/A time=00:03:41.59 bitrate=N/A speed=7.16x    frame= 5406 fps=172 q=-0.0 size=N/A time=00:03:45.47 bitrate=N/A speed=7.17x    frame= 5491 fps=172 q=-0.0 size=N/A time=00:03:49.02 bitrate=N/A speed=7.17x    frame= 5577 fps=172 q=-0.0 size=N/A time=00:03:52.60 bitrate=N/A speed=7.16x    frame= 5665 fps=172 q=-0.0 size=N/A time=00:03:56.27 bitrate=N/A speed=7.16x    frame= 5757 fps=172 q=-0.0 size=N/A time=00:04:00.11 bitrate=N/A speed=7.17x    frame= 5850 fps=172 q=-0.0 size=N/A time=00:04:03.99 bitrate=N/A speed=7.17x    frame= 5941 fps=172 q=-0.0 size=N/A time=00:04:07.78 bitrate=N/A speed=7.17x    frame= 6035 fps=172 q=-0.0 size=N/A time=00:04:11.70 bitrate=N/A speed=7.18x    frame= 6125 fps=172 q=-0.0 size=N/A time=00:04:15.46 bitrate=N/A speed=7.18x    frame= 6210 fps=172 q=-0.0 size=N/A time=00:04:19.00 bitrate=N/A speed=7.18x    frame= 6300 fps=172 q=-0.0 size=N/A time=00:04:22.76 bitrate=N/A speed=7.18x    frame= 6384 fps=172 q=-0.0 size=N/A time=00:04:26.26 bitrate=N/A speed=7.17x    frame= 6476 fps=172 q=-0.0 size=N/A time=00:04:30.10 bitrate=N/A speed=7.18x    frame= 6562 fps=172 q=-0.0 size=N/A time=00:04:33.69 bitrate=N/A speed=7.17x    frame= 6635 fps=172 q=-0.0 size=N/A time=00:04:36.73 bitrate=N/A speed=7.16x    frame= 6736 fps=172 q=-0.0 size=N/A time=00:04:40.94 bitrate=N/A speed=7.17x    frame= 6821 fps=172 q=-0.0 size=N/A time=00:04:44.49 bitrate=N/A speed=7.17x    frame= 6908 fps=172 q=-0.0 size=N/A time=00:04:48.12 bitrate=N/A speed=7.16x    frame= 6991 fps=172 q=-0.0 size=N/A time=00:04:51.58 bitrate=N/A speed=7.16x    frame= 7079 fps=172 q=-0.0 size=N/A time=00:04:55.25 bitrate=N/A speed=7.16x    frame= 7167 fps=172 q=-0.0 size=N/A time=00:04:58.92 bitrate=N/A speed=7.16x    frame= 7253 fps=172 q=-0.0 size=N/A time=00:05:02.51 bitrate=N/A speed=7.16x    frame= 7344 fps=172 q=-0.0 size=N/A time=00:05:06.30 bitrate=N/A speed=7.16x    frame= 7424 fps=171 q=-0.0 size=N/A time=00:05:09.64 bitrate=N/A speed=7.15x    frame= 7523 fps=172 q=-0.0 size=N/A time=00:05:13.77 bitrate=N/A speed=7.16x    frame= 7600 fps=171 q=-0.0 size=N/A time=00:05:16.98 bitrate=N/A speed=7.15x    frame= 7693 fps=172 q=-0.0 size=N/A time=00:05:20.86 bitrate=N/A speed=7.15x    frame= 7779 fps=171 q=-0.0 size=N/A time=00:05:24.44 bitrate=N/A speed=7.15x    frame= 7864 fps=171 q=-0.0 size=N/A time=00:05:27.99 bitrate=N/A speed=7.15x    frame= 7952 fps=171 q=-0.0 size=N/A time=00:05:31.66 bitrate=N/A speed=7.15x    frame= 8041 fps=171 q=-0.0 size=N/A time=00:05:35.37 bitrate=N/A speed=7.15x    frame= 8130 fps=171 q=-0.0 size=N/A time=00:05:39.08 bitrate=N/A speed=7.15x    frame= 8217 fps=171 q=-0.0 size=N/A time=00:05:42.71 bitrate=N/A speed=7.15x    frame= 8310 fps=171 q=-0.0 size=N/A time=00:05:46.59 bitrate=N/A speed=7.15x    frame= 8398 fps=171 q=-0.0 size=N/A time=00:05:50.26 bitrate=N/A speed=7.15x    frame= 8484 fps=171 q=-0.0 size=N/A time=00:05:53.85 bitrate=N/A speed=7.15x    frame= 8570 fps=171 q=-0.0 size=N/A time=00:05:57.44 bitrate=N/A speed=7.15x    frame= 8657 fps=171 q=-0.0 size=N/A time=00:06:01.06 bitrate=N/A speed=7.15x    frame= 8741 fps=171 q=-0.0 size=N/A time=00:06:04.57 bitrate=N/A speed=7.14x    frame= 8829 fps=171 q=-0.0 size=N/A time=00:06:08.24 bitrate=N/A speed=7.14x    frame= 8909 fps=171 q=-0.0 size=N/A time=00:06:11.57 bitrate=N/A speed=7.14x    frame= 8997 fps=171 q=-0.0 size=N/A time=00:06:15.24 bitrate=N/A speed=7.14x    frame= 9088 fps=171 q=-0.0 size=N/A time=00:06:19.04 bitrate=N/A speed=7.14x    frame= 9168 fps=171 q=-0.0 size=N/A time=00:06:22.38 bitrate=N/A speed=7.13x    frame= 9270 fps=171 q=-0.0 size=N/A time=00:06:26.63 bitrate=N/A speed=7.14x    frame= 9358 fps=171 q=-0.0 size=N/A time=00:06:30.30 bitrate=N/A speed=7.14x    frame= 9450 fps=171 q=-0.0 size=N/A time=00:06:34.14 bitrate=N/A speed=7.14x    frame= 9540 fps=171 q=-0.0 size=N/A time=00:06:37.89 bitrate=N/A speed=7.15x    frame= 9630 fps=171 q=-0.0 size=N/A time=00:06:41.65 bitrate=N/A speed=7.15x    frame= 9714 fps=171 q=-0.0 size=N/A time=00:06:45.15 bitrate=N/A speed=7.14x    frame= 9810 fps=171 q=-0.0 size=N/A time=00:06:49.15 bitrate=N/A speed=7.15x    frame= 9901 fps=171 q=-0.0 size=N/A time=00:06:52.95 bitrate=N/A speed=7.15x    frame= 9994 fps=172 q=-0.0 size=N/A time=00:06:56.83 bitrate=N/A speed=7.15x    frame=10086 fps=172 q=-0.0 size=N/A time=00:07:00.67 bitrate=N/A speed=7.16x    frame=10171 fps=172 q=-0.0 size=N/A time=00:07:04.21 bitrate=N/A speed=7.15x    frame=10266 fps=172 q=-0.0 size=N/A time=00:07:08.17 bitrate=N/A speed=7.16x    frame=10357 fps=172 q=-0.0 size=N/A time=00:07:11.97 bitrate=N/A speed=7.16x    frame=10435 fps=172 q=-0.0 size=N/A time=00:07:15.22 bitrate=N/A speed=7.15x    frame=10533 fps=172 q=-0.0 size=N/A time=00:07:19.31 bitrate=N/A speed=7.16x    frame=10625 fps=172 q=-0.0 size=N/A time=00:07:23.15 bitrate=N/A speed=7.16x    frame=10719 fps=172 q=-0.0 size=N/A time=00:07:27.07 bitrate=N/A speed=7.17x    frame=10806 fps=172 q=-0.0 size=N/A time=00:07:30.70 bitrate=N/A speed=7.17x    frame=10898 fps=172 q=-0.0 size=N/A time=00:07:34.53 bitrate=N/A speed=7.17x    frame=10983 fps=172 q=-0.0 size=N/A time=00:07:38.08 bitrate=N/A speed=7.17x    frame=11070 fps=172 q=-0.0 size=N/A time=00:07:41.71 bitrate=N/A speed=7.16x    frame=11164 fps=172 q=-0.0 size=N/A time=00:07:45.63 bitrate=N/A speed=7.17x    frame=11257 fps=172 q=-0.0 size=N/A time=00:07:49.51 bitrate=N/A speed=7.17x    frame=11348 fps=172 q=-0.0 size=N/A time=00:07:53.30 bitrate=N/A speed=7.17x    frame=11442 fps=172 q=-0.0 size=N/A time=00:07:57.22 bitrate=N/A speed=7.18x    frame=11530 fps=172 q=-0.0 size=N/A time=00:08:00.89 bitrate=N/A speed=7.17x    frame=11625 fps=172 q=-0.0 size=N/A time=00:08:04.85 bitrate=N/A speed=7.18x    frame=11716 fps=172 q=-0.0 size=N/A time=00:08:08.65 bitrate=N/A speed=7.18x    frame=11808 fps=172 q=-0.0 size=N/A time=00:08:12.49 bitrate=N/A speed=7.18x    frame=11900 fps=172 q=-0.0 size=N/A time=00:08:16.32 bitrate=N/A speed=7.18x    frame=11989 fps=172 q=-0.0 size=N/A time=00:08:20.04 bitrate=N/A speed=7.18x    frame=12081 fps=172 q=-0.0 size=N/A time=00:08:23.87 bitrate=N/A speed=7.19x    frame=12167 fps=172 q=-0.0 size=N/A time=00:08:27.46 bitrate=N/A speed=7.18x    frame=12259 fps=172 q=-0.0 size=N/A time=00:08:31.30 bitrate=N/A speed=7.19x    frame=12348 fps=172 q=-0.0 size=N/A time=00:08:35.01 bitrate=N/A speed=7.19x    frame=12440 fps=172 q=-0.0 size=N/A time=00:08:38.85 bitrate=N/A speed=7.19x    frame=12527 fps=172 q=-0.0 size=N/A time=00:08:42.48 bitrate=N/A speed=7.19x    frame=12618 fps=172 q=-0.0 size=N/A time=00:08:46.27 bitrate=N/A speed=7.19x    frame=12703 fps=172 q=-0.0 size=N/A time=00:08:49.82 bitrate=N/A speed=7.19x    frame=12798 fps=172 q=-0.0 size=N/A time=00:08:53.78 bitrate=N/A speed=7.19x    frame=12893 fps=172 q=-0.0 size=N/A time=00:08:57.74 bitrate=N/A speed=7.19x    frame=12975 fps=172 q=-0.0 size=N/A time=00:09:01.16 bitrate=N/A speed=7.19x    frame=13073 fps=173 q=-0.0 size=N/A time=00:09:05.25 bitrate=N/A speed=7.19x    frame=13166 fps=173 q=-0.0 size=N/A time=00:09:09.13 bitrate=N/A speed= 7.2x    frame=13257 fps=173 q=-0.0 size=N/A time=00:09:12.92 bitrate=N/A speed= 7.2x    frame=13345 fps=173 q=-0.0 size=N/A time=00:09:16.59 bitrate=N/A speed= 7.2x    frame=13434 fps=173 q=-0.0 size=N/A time=00:09:20.30 bitrate=N/A speed= 7.2x    frame=13524 fps=173 q=-0.0 size=N/A time=00:09:24.06 bitrate=N/A speed= 7.2x    frame=13618 fps=173 q=-0.0 size=N/A time=00:09:27.98 bitrate=N/A speed= 7.2x    frame=13708 fps=173 q=-0.0 size=N/A time=00:09:31.73 bitrate=N/A speed= 7.2x    frame=13797 fps=173 q=-0.0 size=N/A time=00:09:35.44 bitrate=N/A speed= 7.2x    frame=13887 fps=173 q=-0.0 size=N/A time=00:09:39.20 bitrate=N/A speed= 7.2x    frame=13979 fps=173 q=-0.0 size=N/A time=00:09:43.04 bitrate=N/A speed= 7.2x    frame=14068 fps=173 q=-0.0 size=N/A time=00:09:46.75 bitrate=N/A speed= 7.2x    frame=14154 fps=173 q=-0.0 size=N/A time=00:09:50.33 bitrate=N/A speed= 7.2x    frame=14250 fps=173 q=-0.0 size=N/A time=00:09:54.34 bitrate=N/A speed= 7.2x    frame=14341 fps=173 q=-0.0 size=N/A time=00:09:58.13 bitrate=N/A speed= 7.2x    frame=14433 fps=173 q=-0.0 size=N/A time=00:10:01.97 bitrate=N/A speed=7.21x    frame=14523 fps=173 q=-0.0 size=N/A time=00:10:05.73 bitrate=N/A speed=7.21x    frame=14616 fps=173 q=-0.0 size=N/A time=00:10:09.60 bitrate=N/A speed=7.21x    frame=14704 fps=173 q=-0.0 size=N/A time=00:10:13.27 bitrate=N/A speed=7.21x    frame=14793 fps=173 q=-0.0 size=N/A time=00:10:16.99 bitrate=N/A speed=7.21x    frame=14887 fps=173 q=-0.0 size=N/A time=00:10:20.91 bitrate=N/A speed=7.21x    frame=14974 fps=173 q=-0.0 size=N/A time=00:10:24.54 bitrate=N/A speed=7.21x    frame=15066 fps=173 q=-0.0 size=N/A time=00:10:28.37 bitrate=N/A speed=7.21x    frame=15151 fps=173 q=-0.0 size=N/A time=00:10:31.92 bitrate=N/A speed=7.21x    frame=15248 fps=173 q=-0.0 size=N/A time=00:10:35.96 bitrate=N/A speed=7.21x    frame=15338 fps=173 q=-0.0 size=N/A time=00:10:39.72 bitrate=N/A speed=7.21x    frame=15430 fps=173 q=-0.0 size=N/A time=00:10:43.55 bitrate=N/A speed=7.21x    frame=15519 fps=173 q=-0.0 size=N/A time=00:10:47.27 bitrate=N/A speed=7.21x    frame=15611 fps=173 q=-0.0 size=N/A time=00:10:51.10 bitrate=N/A speed=7.21x    frame=15701 fps=173 q=-0.0 size=N/A time=00:10:54.86 bitrate=N/A speed=7.22x    frame=15779 fps=173 q=-0.0 size=N/A time=00:10:58.11 bitrate=N/A speed=7.21x    frame=15879 fps=173 q=-0.0 size=N/A time=00:11:02.28 bitrate=N/A speed=7.22x    frame=15971 fps=173 q=-0.0 size=N/A time=00:11:06.12 bitrate=N/A speed=7.22x    frame=16051 fps=173 q=-0.0 size=N/A time=00:11:09.46 bitrate=N/A speed=7.21x    frame=16148 fps=173 q=-0.0 size=N/A time=00:11:13.50 bitrate=N/A speed=7.22x    frame=16238 fps=173 q=-0.0 size=N/A time=00:11:17.25 bitrate=N/A speed=7.22x    frame=16333 fps=173 q=-0.0 size=N/A time=00:11:21.22 bitrate=N/A speed=7.22x    frame=16422 fps=173 q=-0.0 size=N/A time=00:11:24.93 bitrate=N/A speed=7.22x    frame=16514 fps=173 q=-0.0 size=N/A time=00:11:28.77 bitrate=N/A speed=7.22x    frame=16601 fps=173 q=-0.0 size=N/A time=00:11:32.40 bitrate=N/A speed=7.22x    frame=16693 fps=173 q=-0.0 size=N/A time=00:11:36.23 bitrate=N/A speed=7.22x    frame=16781 fps=173 q=-0.0 size=N/A time=00:11:39.90 bitrate=N/A speed=7.22x    frame=16882 fps=173 q=-0.0 size=N/A time=00:11:44.12 bitrate=N/A speed=7.22x    frame=16971 fps=173 q=-0.0 size=N/A time=00:11:47.83 bitrate=N/A speed=7.22x    frame=17058 fps=173 q=-0.0 size=N/A time=00:11:51.46 bitrate=N/A speed=7.22x    frame=17149 fps=173 q=-0.0 size=N/A time=00:11:55.25 bitrate=N/A speed=7.22x    frame=17238 fps=173 q=-0.0 size=N/A time=00:11:58.96 bitrate=N/A speed=7.22x    frame=17332 fps=173 q=-0.0 size=N/A time=00:12:02.88 bitrate=N/A speed=7.23x    frame=17424 fps=173 q=-0.0 size=N/A time=00:12:06.72 bitrate=N/A speed=7.23x    frame=17509 fps=173 q=-0.0 size=N/A time=00:12:10.27 bitrate=N/A speed=7.23x    frame=17602 fps=173 q=-0.0 size=N/A time=00:12:14.15 bitrate=N/A speed=7.23x    frame=17690 fps=173 q=-0.0 size=N/A time=00:12:17.82 bitrate=N/A speed=7.23x    frame=17770 fps=173 q=-0.0 size=N/A time=00:12:21.15 bitrate=N/A speed=7.22x    frame=17873 fps=173 q=-0.0 size=N/A time=00:12:25.45 bitrate=N/A speed=7.23x    frame=17965 fps=173 q=-0.0 size=N/A time=00:12:29.29 bitrate=N/A speed=7.23x    frame=18052 fps=173 q=-0.0 size=N/A time=00:12:32.91 bitrate=N/A speed=7.23x    frame=18145 fps=173 q=-0.0 size=N/A time=00:12:36.79 bitrate=N/A speed=7.23x    frame=18235 fps=173 q=-0.0 size=N/A time=00:12:40.55 bitrate=N/A speed=7.23x    frame=18325 fps=173 q=-0.0 size=N/A time=00:12:44.30 bitrate=N/A speed=7.23x    frame=18414 fps=173 q=-0.0 size=N/A time=00:12:48.01 bitrate=N/A speed=7.23x    frame=18504 fps=173 q=-0.0 size=N/A time=00:12:51.77 bitrate=N/A speed=7.23x    frame=18590 fps=173 q=-0.0 size=N/A time=00:12:55.35 bitrate=N/A speed=7.23x    frame=18676 fps=173 q=-0.0 size=N/A time=00:12:58.94 bitrate=N/A speed=7.23x    frame=18772 fps=173 q=-0.0 size=N/A time=00:13:02.94 bitrate=N/A speed=7.23x    frame=18850 fps=173 q=-0.0 size=N/A time=00:13:06.20 bitrate=N/A speed=7.23x    frame=18951 fps=173 q=-0.0 size=N/A time=00:13:10.41 bitrate=N/A speed=7.23x    frame=19045 fps=173 q=-0.0 size=N/A time=00:13:14.33 bitrate=N/A speed=7.23x    frame=19120 fps=173 q=-0.0 size=N/A time=00:13:17.46 bitrate=N/A speed=7.23x    frame=19221 fps=173 q=-0.0 size=N/A time=00:13:21.67 bitrate=N/A speed=7.23x    frame=19313 fps=173 q=-0.0 size=N/A time=00:13:25.51 bitrate=N/A speed=7.23x    frame=19404 fps=173 q=-0.0 size=N/A time=00:13:29.30 bitrate=N/A speed=7.23x    frame=19495 fps=173 q=-0.0 size=N/A time=00:13:33.10 bitrate=N/A speed=7.23x    frame=19583 fps=173 q=-0.0 size=N/A time=00:13:36.77 bitrate=N/A speed=7.23x    frame=19668 fps=173 q=-0.0 size=N/A time=00:13:40.31 bitrate=N/A speed=7.23x    frame=19748 fps=173 q=-0.0 size=N/A time=00:13:43.65 bitrate=N/A speed=7.23x    frame=19851 fps=173 q=-0.0 size=N/A time=00:13:47.95 bitrate=N/A speed=7.23x    frame=19941 fps=173 q=-0.0 size=N/A time=00:13:51.70 bitrate=N/A speed=7.23x    frame=20027 fps=173 q=-0.0 size=N/A time=00:13:55.29 bitrate=N/A speed=7.23x    frame=20118 fps=173 q=-0.0 size=N/A time=00:13:59.08 bitrate=N/A speed=7.23x    frame=20207 fps=173 q=-0.0 size=N/A time=00:14:02.80 bitrate=N/A speed=7.23x    frame=20297 fps=173 q=-0.0 size=N/A time=00:14:06.55 bitrate=N/A speed=7.23x    frame=20385 fps=173 q=-0.0 size=N/A time=00:14:10.22 bitrate=N/A speed=7.23x    frame=20474 fps=173 q=-0.0 size=N/A time=00:14:13.93 bitrate=N/A speed=7.23x    frame=20568 fps=173 q=-0.0 size=N/A time=00:14:17.85 bitrate=N/A speed=7.23x    frame=20649 fps=173 q=-0.0 size=N/A time=00:14:21.23 bitrate=N/A speed=7.23x    frame=20739 fps=173 q=-0.0 size=N/A time=00:14:24.98 bitrate=N/A speed=7.23x    frame=20835 fps=173 q=-0.0 size=N/A time=00:14:28.99 bitrate=N/A speed=7.23x    frame=20915 fps=173 q=-0.0 size=N/A time=00:14:32.32 bitrate=N/A speed=7.23x    frame=21010 fps=173 q=-0.0 size=N/A time=00:14:36.29 bitrate=N/A speed=7.23x    frame=21098 fps=173 q=-0.0 size=N/A time=00:14:39.96 bitrate=N/A speed=7.23x    frame=21187 fps=173 q=-0.0 size=N/A time=00:14:43.67 bitrate=N/A speed=7.23x    frame=21277 fps=173 q=-0.0 size=N/A time=00:14:47.42 bitrate=N/A speed=7.23x    frame=21366 fps=173 q=-0.0 size=N/A time=00:14:51.14 bitrate=N/A speed=7.23x    frame=21457 fps=173 q=-0.0 size=N/A time=00:14:54.93 bitrate=N/A speed=7.23x    frame=21547 fps=173 q=-0.0 size=N/A time=00:14:58.68 bitrate=N/A speed=7.23x    frame=21626 fps=173 q=-0.0 size=N/A time=00:15:01.98 bitrate=N/A speed=7.23x    frame=21733 fps=173 q=-0.0 size=N/A time=00:15:06.44 bitrate=N/A speed=7.23x    frame=21815 fps=173 q=-0.0 size=N/A time=00:15:09.86 bitrate=N/A speed=7.23x    frame=21905 fps=173 q=-0.0 size=N/A time=00:15:13.62 bitrate=N/A speed=7.23x    frame=21998 fps=173 q=-0.0 size=N/A time=00:15:17.49 bitrate=N/A speed=7.23x    frame=22091 fps=173 q=-0.0 size=N/A time=00:15:21.37 bitrate=N/A speed=7.23x    frame=22184 fps=173 q=-0.0 size=N/A time=00:15:25.25 bitrate=N/A speed=7.23x    frame=22274 fps=173 q=-0.0 size=N/A time=00:15:29.01 bitrate=N/A speed=7.24x    frame=22362 fps=173 q=-0.0 size=N/A time=00:15:32.68 bitrate=N/A speed=7.24x    frame=22457 fps=174 q=-0.0 size=N/A time=00:15:36.64 bitrate=N/A speed=7.24x    frame=22548 fps=174 q=-0.0 size=N/A time=00:15:40.43 bitrate=N/A speed=7.24x    frame=22641 fps=174 q=-0.0 size=N/A time=00:15:44.31 bitrate=N/A speed=7.24x    frame=22725 fps=174 q=-0.0 size=N/A time=00:15:47.82 bitrate=N/A speed=7.24x    frame=22822 fps=174 q=-0.0 size=N/A time=00:15:51.86 bitrate=N/A speed=7.24x    frame=22912 fps=174 q=-0.0 size=N/A time=00:15:55.62 bitrate=N/A speed=7.24x    frame=23001 fps=174 q=-0.0 size=N/A time=00:15:59.33 bitrate=N/A speed=7.24x    frame=23086 fps=174 q=-0.0 size=N/A time=00:16:02.87 bitrate=N/A speed=7.24x    frame=23181 fps=174 q=-0.0 size=N/A time=00:16:06.84 bitrate=N/A speed=7.24x    frame=23268 fps=174 q=-0.0 size=N/A time=00:16:10.46 bitrate=N/A speed=7.24x    frame=23361 fps=174 q=-0.0 size=N/A time=00:16:14.34 bitrate=N/A speed=7.24x    frame=23448 fps=174 q=-0.0 size=N/A time=00:16:17.97 bitrate=N/A speed=7.24x    frame=23538 fps=174 q=-0.0 size=N/A time=00:16:21.73 bitrate=N/A speed=7.24x    frame=23627 fps=174 q=-0.0 size=N/A time=00:16:25.44 bitrate=N/A speed=7.24x    frame=23718 fps=174 q=-0.0 size=N/A time=00:16:29.23 bitrate=N/A speed=7.24x    frame=23806 fps=174 q=-0.0 size=N/A time=00:16:32.90 bitrate=N/A speed=7.24x    frame=23893 fps=174 q=-0.0 size=N/A time=00:16:36.53 bitrate=N/A speed=7.24x    frame=23982 fps=174 q=-0.0 size=N/A time=00:16:40.24 bitrate=N/A speed=7.24x    frame=24071 fps=174 q=-0.0 size=N/A time=00:16:43.96 bitrate=N/A speed=7.24x    frame=24159 fps=174 q=-0.0 size=N/A time=00:16:47.63 bitrate=N/A speed=7.24x    frame=24251 fps=174 q=-0.0 size=N/A time=00:16:51.46 bitrate=N/A speed=7.24x    frame=24340 fps=174 q=-0.0 size=N/A time=00:16:55.18 bitrate=N/A speed=7.24x    frame=24431 fps=174 q=-0.0 size=N/A time=00:16:58.97 bitrate=N/A speed=7.24x    frame=24520 fps=174 q=-0.0 size=N/A time=00:17:02.68 bitrate=N/A speed=7.24x    frame=24611 fps=174 q=-0.0 size=N/A time=00:17:06.48 bitrate=N/A speed=7.24x    frame=24698 fps=174 q=-0.0 size=N/A time=00:17:10.11 bitrate=N/A speed=7.24x    frame=24787 fps=174 q=-0.0 size=N/A time=00:17:13.82 bitrate=N/A speed=7.24x    frame=24869 fps=173 q=-0.0 size=N/A time=00:17:17.24 bitrate=N/A speed=7.24x    frame=24965 fps=174 q=-0.0 size=N/A time=00:17:21.24 bitrate=N/A speed=7.24x    frame=25047 fps=173 q=-0.0 size=N/A time=00:17:24.66 bitrate=N/A speed=7.24x    frame=25143 fps=174 q=-0.0 size=N/A time=00:17:28.67 bitrate=N/A speed=7.24x    frame=25230 fps=173 q=-0.0 size=N/A time=00:17:32.30 bitrate=N/A speed=7.24x    frame=25325 fps=174 q=-0.0 size=N/A time=00:17:36.26 bitrate=N/A speed=7.24x    frame=25413 fps=174 q=-0.0 size=N/A time=00:17:39.93 bitrate=N/A speed=7.24x    frame=25494 fps=173 q=-0.0 size=N/A time=00:17:43.31 bitrate=N/A speed=7.24x    frame=25602 fps=174 q=-0.0 size=N/A time=00:17:47.81 bitrate=N/A speed=7.24x    frame=25687 fps=174 q=-0.0 size=N/A time=00:17:51.36 bitrate=N/A speed=7.24x    frame=25779 fps=174 q=-0.0 size=N/A time=00:17:55.19 bitrate=N/A speed=7.24x    frame=25861 fps=174 q=-0.0 size=N/A time=00:17:58.61 bitrate=N/A speed=7.24x    frame=25946 fps=174 q=-0.0 size=N/A time=00:18:02.16 bitrate=N/A speed=7.24x    frame=26042 fps=174 q=-0.0 size=N/A time=00:18:06.16 bitrate=N/A speed=7.24x    frame=26130 fps=174 q=-0.0 size=N/A time=00:18:09.83 bitrate=N/A speed=7.24x    frame=26212 fps=173 q=-0.0 size=N/A time=00:18:13.25 bitrate=N/A speed=7.24x    frame=26301 fps=173 q=-0.0 size=N/A time=00:18:16.97 bitrate=N/A speed=7.24x    frame=26398 fps=174 q=-0.0 size=N/A time=00:18:21.01 bitrate=N/A speed=7.24x    frame=26475 fps=173 q=-0.0 size=N/A time=00:18:24.22 bitrate=N/A speed=7.23x    frame=26577 fps=174 q=-0.0 size=N/A time=00:18:28.48 bitrate=N/A speed=7.24x    frame=26661 fps=174 q=-0.0 size=N/A time=00:18:31.98 bitrate=N/A speed=7.24x    frame=26751 fps=174 q=-0.0 size=N/A time=00:18:35.73 bitrate=N/A speed=7.24x    frame=26842 fps=174 q=-0.0 size=N/A time=00:18:39.53 bitrate=N/A speed=7.24x    frame=26934 fps=174 q=-0.0 size=N/A time=00:18:43.37 bitrate=N/A speed=7.24x    frame=27022 fps=174 q=-0.0 size=N/A time=00:18:47.04 bitrate=N/A speed=7.24x    frame=27110 fps=173 q=-0.0 size=N/A time=00:18:50.71 bitrate=N/A speed=7.24x    frame=27195 fps=173 q=-0.0 size=N/A time=00:18:54.25 bitrate=N/A speed=7.23x    frame=27277 fps=173 q=-0.0 size=N/A time=00:18:57.67 bitrate=N/A speed=7.23x    frame=27374 fps=173 q=-0.0 size=N/A time=00:19:01.72 bitrate=N/A speed=7.23x    frame=27460 fps=173 q=-0.0 size=N/A time=00:19:05.31 bitrate=N/A speed=7.23x    frame=27536 fps=173 q=-0.0 size=N/A time=00:19:08.48 bitrate=N/A speed=7.23x    frame=27631 fps=173 q=-0.0 size=N/A time=00:19:12.44 bitrate=N/A speed=7.23x    frame=27723 fps=173 q=-0.0 size=N/A time=00:19:16.28 bitrate=N/A speed=7.23x    frame=27812 fps=173 q=-0.0 size=N/A time=00:19:19.99 bitrate=N/A speed=7.23x    frame=27902 fps=173 q=-0.0 size=N/A time=00:19:23.74 bitrate=N/A speed=7.23x    frame=27983 fps=173 q=-0.0 size=N/A time=00:19:27.12 bitrate=N/A speed=7.23x    frame=28072 fps=173 q=-0.0 size=N/A time=00:19:30.83 bitrate=N/A speed=7.23x    frame=28157 fps=173 q=-0.0 size=N/A time=00:19:34.38 bitrate=N/A speed=7.23x    frame=28247 fps=173 q=-0.0 size=N/A time=00:19:38.13 bitrate=N/A speed=7.23x    frame=28341 fps=173 q=-0.0 size=N/A time=00:19:42.05 bitrate=N/A speed=7.23x    frame=28428 fps=173 q=-0.0 size=N/A time=00:19:45.68 bitrate=N/A speed=7.23x    frame=28512 fps=173 q=-0.0 size=N/A time=00:19:49.18 bitrate=N/A speed=7.23x    frame=28596 fps=173 q=-0.0 size=N/A time=00:19:52.69 bitrate=N/A speed=7.23x    frame=28685 fps=173 q=-0.0 size=N/A time=00:19:56.40 bitrate=N/A speed=7.23x    frame=28782 fps=173 q=-0.0 size=N/A time=00:20:00.44 bitrate=N/A speed=7.23x    frame=28873 fps=173 q=-0.0 size=N/A time=00:20:04.24 bitrate=N/A speed=7.23x    frame=28961 fps=173 q=-0.0 size=N/A time=00:20:07.91 bitrate=N/A speed=7.23x    frame=29049 fps=173 q=-0.0 size=N/A time=00:20:11.58 bitrate=N/A speed=7.23x    frame=29140 fps=173 q=-0.0 size=N/A time=00:20:15.38 bitrate=N/A speed=7.23x    frame=29221 fps=173 q=-0.0 size=N/A time=00:20:18.75 bitrate=N/A speed=7.23x    frame=29316 fps=173 q=-0.0 size=N/A time=00:20:22.72 bitrate=N/A speed=7.23x    frame=29414 fps=173 q=-0.0 size=N/A time=00:20:26.80 bitrate=N/A speed=7.23x    frame=29505 fps=173 q=-0.0 size=N/A time=00:20:30.60 bitrate=N/A speed=7.23x    frame=29596 fps=173 q=-0.0 size=N/A time=00:20:34.39 bitrate=N/A speed=7.23x    frame=29685 fps=173 q=-0.0 size=N/A time=00:20:38.11 bitrate=N/A speed=7.23x    frame=29781 fps=173 q=-0.0 size=N/A time=00:20:42.11 bitrate=N/A speed=7.23x    frame=29866 fps=173 q=-0.0 size=N/A time=00:20:45.66 bitrate=N/A speed=7.23x    frame=29955 fps=173 q=-0.0 size=N/A time=00:20:49.37 bitrate=N/A speed=7.23x    frame=30039 fps=173 q=-0.0 size=N/A time=00:20:52.87 bitrate=N/A speed=7.23x    frame=30134 fps=173 q=-0.0 size=N/A time=00:20:56.83 bitrate=N/A speed=7.23x    frame=30221 fps=173 q=-0.0 size=N/A time=00:21:00.46 bitrate=N/A speed=7.23x    frame=30302 fps=173 q=-0.0 size=N/A time=00:21:03.84 bitrate=N/A speed=7.23x    frame=30402 fps=173 q=-0.0 size=N/A time=00:21:08.01 bitrate=N/A speed=7.23x    frame=30486 fps=173 q=-0.0 size=N/A time=00:21:11.52 bitrate=N/A speed=7.23x    frame=30571 fps=173 q=-0.0 size=N/A time=00:21:15.06 bitrate=N/A speed=7.23x    frame=30664 fps=173 q=-0.0 size=N/A time=00:21:18.94 bitrate=N/A speed=7.23x    frame=30750 fps=173 q=-0.0 size=N/A time=00:21:22.53 bitrate=N/A speed=7.23x    frame=30832 fps=173 q=-0.0 size=N/A time=00:21:25.95 bitrate=N/A speed=7.23x    frame=30914 fps=173 q=-0.0 size=N/A time=00:21:29.37 bitrate=N/A speed=7.22x    frame=31009 fps=173 q=-0.0 size=N/A time=00:21:33.33 bitrate=N/A speed=7.22x    frame=31098 fps=173 q=-0.0 size=N/A time=00:21:37.04 bitrate=N/A speed=7.23x    frame=31186 fps=173 q=-0.0 size=N/A time=00:21:40.71 bitrate=N/A speed=7.22x    frame=31278 fps=173 q=-0.0 size=N/A time=00:21:44.55 bitrate=N/A speed=7.22x    frame=31366 fps=173 q=-0.0 size=N/A time=00:21:48.22 bitrate=N/A speed=7.22x    frame=31454 fps=173 q=-0.0 size=N/A time=00:21:51.89 bitrate=N/A speed=7.22x    frame=31540 fps=173 q=-0.0 size=N/A time=00:21:55.48 bitrate=N/A speed=7.22x    frame=31629 fps=173 q=-0.0 size=N/A time=00:21:59.19 bitrate=N/A speed=7.22x    frame=31711 fps=173 q=-0.0 size=N/A time=00:22:02.61 bitrate=N/A speed=7.22x    frame=31784 fps=173 q=-0.0 size=N/A time=00:22:05.65 bitrate=N/A speed=7.22x    frame=31867 fps=173 q=-0.0 size=N/A time=00:22:09.11 bitrate=N/A speed=7.22x    frame=31964 fps=173 q=-0.0 size=N/A time=00:22:13.16 bitrate=N/A speed=7.22x    frame=32055 fps=173 q=-0.0 size=N/A time=00:22:16.96 bitrate=N/A speed=7.22x    frame=32142 fps=173 q=-0.0 size=N/A time=00:22:20.58 bitrate=N/A speed=7.22x    frame=32229 fps=173 q=-0.0 size=N/A time=00:22:24.21 bitrate=N/A speed=7.22x    frame=32323 fps=173 q=-0.0 size=N/A time=00:22:28.13 bitrate=N/A speed=7.22x    frame=32412 fps=173 q=-0.0 size=N/A time=00:22:31.85 bitrate=N/A speed=7.22x    frame=32501 fps=173 q=-0.0 size=N/A time=00:22:35.56 bitrate=N/A speed=7.22x    frame=32588 fps=173 q=-0.0 size=N/A time=00:22:39.19 bitrate=N/A speed=7.22x    frame=32678 fps=173 q=-0.0 size=N/A time=00:22:42.94 bitrate=N/A speed=7.22x    frame=32767 fps=173 q=-0.0 size=N/A time=00:22:46.65 bitrate=N/A speed=7.22x    frame=32842 fps=173 q=-0.0 size=N/A time=00:22:49.78 bitrate=N/A speed=7.22x    frame=32942 fps=173 q=-0.0 size=N/A time=00:22:53.95 bitrate=N/A speed=7.22x    frame=33024 fps=173 q=-0.0 size=N/A time=00:22:57.37 bitrate=N/A speed=7.22x    frame=33119 fps=173 q=-0.0 size=N/A time=00:23:01.33 bitrate=N/A speed=7.22x    frame=33198 fps=173 q=-0.0 size=N/A time=00:23:04.63 bitrate=N/A speed=7.22x    frame=33296 fps=173 q=-0.0 size=N/A time=00:23:08.72 bitrate=N/A speed=7.22x    frame=33385 fps=173 q=-0.0 size=N/A time=00:23:12.43 bitrate=N/A speed=7.22x    frame=33471 fps=173 q=-0.0 size=N/A time=00:23:16.01 bitrate=N/A speed=7.22x    frame=33565 fps=173 q=-0.0 size=N/A time=00:23:19.94 bitrate=N/A speed=7.22x    frame=33658 fps=173 q=-0.0 size=N/A time=00:23:23.81 bitrate=N/A speed=7.22x    frame=33742 fps=173 q=-0.0 size=N/A time=00:23:27.32 bitrate=N/A speed=7.22x    frame=33840 fps=173 q=-0.0 size=N/A time=00:23:31.41 bitrate=N/A speed=7.22x    frame=33927 fps=173 q=-0.0 size=N/A time=00:23:35.03 bitrate=N/A speed=7.22x    frame=34026 fps=173 q=-0.0 size=N/A time=00:23:39.16 bitrate=N/A speed=7.22x    [Parsed_ssim_10 @ 00000283ac00fb00] SSIM Y:0.990205 (20.089823) U:0.992123 (21.036557) V:0.993103 (21.613234) All:0.991007 (20.461183)
[out#0/null @ 00000283ac6215c0] video:14630KiB audio:266632KiB subtitle:0KiB other streams:0KiB global headers:0KiB muxing overhead: unknown
frame=34047 fps=173 q=-0.0 Lsize=N/A time=00:23:40.04 bitrate=N/A speed=7.22x    
